<svg width="1280" height="720" xmlns="http://www.w3.org/2000/svg" xmlns:xlink="http://www.w3.org/1999/xlink" overflow="hidden"><g><rect x="0" y="0" width="1280" height="720" fill="#FFFFFF"/><path d="M631.5 540.5C631.5 531.111 639.111 523.5 648.5 523.5L774.5 523.5C783.889 523.5 791.5 531.111 791.5 540.5L791.5 608.5C791.5 617.889 783.889 625.5 774.5 625.5L648.5 625.5C639.111 625.5 631.5 617.889 631.5 608.5Z" stroke="#2F528F" stroke-width="1.33333" stroke-miterlimit="8" fill="#4472C4" fill-rule="evenodd"/><text fill="#FFFFFF" font-family="Calibri,Calibri_MSFontService,sans-serif" font-weight="400" font-size="24" transform="translate(680.086 582)">Writer</text><path d="M624.5 140.667C624.5 131.186 632.186 123.5 641.667 123.5L774.333 123.5C783.814 123.5 791.5 131.186 791.5 140.667L791.5 209.333C791.5 218.814 783.814 226.5 774.333 226.5L641.667 226.5C632.186 226.5 624.5 218.814 624.5 209.333Z" stroke="#2F528F" stroke-width="1.33333" stroke-miterlimit="8" fill="#4472C4" fill-rule="evenodd"/><text fill="#FFFFFF" font-family="Calibri,Calibri_MSFontService,sans-serif" font-weight="400" font-size="24" transform="translate(673.196 182)">Reader</text><path d="M189.5 282C189.5 273.992 195.992 267.5 204 267.5L328 267.5C336.008 267.5 342.5 273.992 342.5 282L342.5 340C342.5 348.008 336.008 354.5 328 354.5L204 354.5C195.992 354.5 189.5 348.008 189.5 340Z" stroke="#2F528F" stroke-width="1.33333" stroke-miterlimit="8" fill="#A5A5A5" fill-rule="evenodd"/><text fill="#FFFFFF" font-family="Calibri,Calibri_MSFontService,sans-serif" font-weight="400" font-size="24" transform="translate(211.522 304)">&lt;format 1&gt;</text><text fill="#FFFFFF" font-family="Calibri,Calibri_MSFontService,sans-serif" font-weight="400" font-size="24" transform="translate(218.542 333)">converter</text><path d="M184.5 404C184.5 395.992 190.992 389.5 199 389.5L323 389.5C331.008 389.5 337.5 395.992 337.5 404L337.5 462C337.5 470.008 331.008 476.5 323 476.5L199 476.5C190.992 476.5 184.5 470.008 184.5 462Z" stroke="#2F528F" stroke-width="1.33333" stroke-miterlimit="8" fill="#A5A5A5" fill-rule="evenodd"/><text fill="#FFFFFF" font-family="Calibri,Calibri_MSFontService,sans-serif" font-weight="400" font-size="24" transform="translate(206.093 426)">&lt;format 2&gt;</text><text fill="#FFFFFF" font-family="Calibri,Calibri_MSFontService,sans-serif" font-weight="400" font-size="24" transform="translate(213.107 455)">converter</text><path d="M814.5 451.441C877.348 471.885 877.348 430.996 940.188 430.996L940.188 324.722 814.5 324.722ZM824.855 324.722 824.855 310.945 949.685 310.945 949.685 417.885C944.94 417.885 940.188 418.626 940.188 418.626L940.188 324.722ZM834.589 310.945 834.589 297.5 960.5 297.5 960.5 404.107C955.093 404.107 949.685 404.663 949.685 404.663L949.685 310.945Z" fill="#4472C4" fill-rule="evenodd"/><path d="M814.5 324.722 940.188 324.722 940.188 430.996C877.348 430.996 877.348 471.885 814.5 451.441ZM824.855 324.722 824.855 310.945 949.685 310.945 949.685 417.885C944.94 417.885 940.188 418.626 940.188 418.626M834.589 310.945 834.589 297.5 960.5 297.5 960.5 404.107C955.093 404.107 949.685 404.663 949.685 404.663" stroke="#2F528F" stroke-width="1.33333" stroke-miterlimit="8" fill="none" fill-rule="evenodd"/><text fill="#FFFFFF" font-family="Calibri,Calibri_MSFontService,sans-serif" font-weight="400" font-size="24" transform="translate(835.608 366)">Sleeplab</text><text fill="#FFFFFF" font-family="Calibri,Calibri_MSFontService,sans-serif" font-weight="400" font-size="24" transform="translate(843.888 395)">format</text><text fill="#FFFFFF" font-family="Calibri,Calibri_MSFontService,sans-serif" font-weight="400" font-size="24" transform="translate(857.195 424)">files</text><path d="M11.5001 319.637C76.9304 332.671 76.9304 306.604 142.354 306.604L142.354 238.854 11.5001 238.854ZM22.2808 238.854 22.2808 230.071 152.241 230.071 152.241 298.246C147.301 298.246 142.354 298.718 142.354 298.718L142.354 238.854ZM32.4141 230.071 32.4141 221.5 163.5 221.5 163.5 289.462C157.87 289.462 152.241 289.816 152.241 289.816L152.241 230.071Z" fill="#A5A5A5" fill-rule="evenodd"/><path d="M11.5001 238.854 142.354 238.854 142.354 306.604C76.9304 306.604 76.9304 332.671 11.5001 319.637ZM22.2808 238.854 22.2808 230.071 152.241 230.071 152.241 298.246C147.301 298.246 142.354 298.718 142.354 298.718M32.4141 230.071 32.4141 221.5 163.5 221.5 163.5 289.462C157.87 289.462 152.241 289.816 152.241 289.816" stroke="#2F528F" stroke-width="1.33333" stroke-miterlimit="8" fill="none" fill-rule="evenodd"/><text fill="#FFFFFF" font-family="Calibri,Calibri_MSFontService,sans-serif" font-weight="400" font-size="24" transform="translate(22.464 272)">&lt;format 1&gt;</text><text fill="#FFFFFF" font-family="Calibri,Calibri_MSFontService,sans-serif" font-weight="400" font-size="24" transform="translate(56.604 301)">files</text><path d="M11.5001 521.599C76.9304 534.76 76.9304 508.438 142.354 508.438L142.354 440.024 11.5001 440.024ZM22.2808 440.024 22.2808 431.155 152.241 431.155 152.241 499.998C147.301 499.998 142.354 500.475 142.354 500.475L142.354 440.024ZM32.4141 431.155 32.4141 422.5 163.5 422.5 163.5 491.129C157.87 491.129 152.241 491.486 152.241 491.486L152.241 431.155Z" fill="#A5A5A5" fill-rule="evenodd"/><path d="M11.5001 440.024 142.354 440.024 142.354 508.438C76.9304 508.438 76.9304 534.76 11.5001 521.599ZM22.2808 440.024 22.2808 431.155 152.241 431.155 152.241 499.998C147.301 499.998 142.354 500.475 142.354 500.475M32.4141 431.155 32.4141 422.5 163.5 422.5 163.5 491.129C157.87 491.129 152.241 491.486 152.241 491.486" stroke="#2F528F" stroke-width="1.33333" stroke-miterlimit="8" fill="none" fill-rule="evenodd"/><text fill="#FFFFFF" font-family="Calibri,Calibri_MSFontService,sans-serif" font-weight="400" font-size="24" transform="translate(22.4641 473)">&lt;format 2&gt;</text><text fill="#FFFFFF" font-family="Calibri,Calibri_MSFontService,sans-serif" font-weight="400" font-size="24" transform="translate(56.6041 502)">files</text><rect x="440.5" y="271.5" width="271" height="198" stroke="#2F528F" stroke-width="1.33333" stroke-miterlimit="8" stroke-dasharray="5.33333 4" fill="#4472C4" fill-opacity="0.2"/><text fill="#000000" fill-opacity="0.6" font-family="Calibri,Calibri_MSFontService,sans-serif" font-weight="400" font-size="24" transform="translate(457.622 304)">Sleeplab</text><text fill="#000000" fill-opacity="0.6" font-family="Calibri,Calibri_MSFontService,sans-serif" font-weight="400" font-size="24" transform="translate(545.956 304)">format models</text><path d="M497.5 371.5 520 329.5 542.5 371.5Z" stroke="#2F528F" stroke-width="1.33333" stroke-miterlimit="8" fill="#4472C4" fill-rule="evenodd"/><path d="M599.5 353 621.5 330.5 643.5 353 621.5 375.5Z" stroke="#2F528F" stroke-width="1.33333" stroke-miterlimit="8" fill="#4472C4" fill-rule="evenodd"/><path d="M497.5 424.5 508 403.5 532 403.5 542.5 424.5 532 445.5 508 445.5Z" stroke="#2F528F" stroke-width="1.33333" stroke-miterlimit="8" fill="#4472C4" fill-rule="evenodd"/><path d="M599.5 422.5C599.5 410.902 609.35 401.5 621.5 401.5 633.65 401.5 643.5 410.902 643.5 422.5 643.5 434.098 633.65 443.5 621.5 443.5 609.35 443.5 599.5 434.098 599.5 422.5Z" stroke="#2F528F" stroke-width="1.33333" stroke-miterlimit="8" fill="#4472C4" fill-rule="evenodd"/><path d="M0 0 0.000104987 683.636" stroke="#4472C4" stroke-width="0.666667" stroke-miterlimit="8" stroke-dasharray="5.33333 2" fill="none" fill-rule="evenodd" transform="matrix(1 0 0 -1 387.5 700.136)"/><text font-family="Calibri,Calibri_MSFontService,sans-serif" font-weight="700" font-size="27" transform="translate(42.8484 65)">Heterogeneous source data</text><text font-family="Calibri,Calibri_MSFontService,sans-serif" font-weight="700" font-size="27" transform="translate(602.372 65)">Sleeplab</text><text font-family="Calibri,Calibri_MSFontService,sans-serif" font-weight="700" font-size="27" transform="translate(702.872 65)">format</text><path d="M163.559 272.172 166.028 272.616 168.451 273.885 170.694 275.839 172.692 278.358 174.375 281.329 175.672 284.641 176.506 288.183 176.799 291.816 177.09 295.424 177.083 295.375 177.906 298.869 177.892 298.824 179.171 302.092 179.15 302.049 180.809 304.977 180.752 304.903 183.768 307.84 183.303 308.318 180.252 305.347 178.558 302.357 177.262 299.045 176.428 295.503 176.135 291.87 175.843 288.262 175.851 288.312 175.028 284.817 175.042 284.862 173.763 281.594 173.784 281.637 172.125 278.709 172.154 278.752 170.191 276.277 170.233 276.322 168.042 274.414 168.107 274.458 165.764 273.23 165.86 273.263 163.441 272.828ZM184.22 303.918 189.434 311.186 180.492 310.996Z" fill="#4472C4"/><path d="M0.0782429-0.32402 2.02863 0.146949 3.94411 1.49653 5.70081 3.55313 7.25959 6.19495 8.5711 9.30674 9.5803 12.7731 10.2294 16.4781 10.458 20.2842 10.6854 24.0714 10.681 24.0338 11.3237 27.702 11.3155 27.6664 12.3141 31.0967 12.3012 31.0604 13.5966 34.1338 13.5444 34.0486 15.3387 36.1808 14.8286 36.61 13.0018 34.4392 11.6794 31.3016 10.6702 27.8352 10.0211 24.1302 9.79254 20.3241 9.56511 16.5369 9.56952 16.5745 8.9268 12.9062 8.93508 12.9419 7.9364 9.5116 7.94928 9.54789 6.65396 6.47451 6.67404 6.51444 5.14141 3.91693 5.17503 3.96404 3.46442 1.96138 3.52588 2.01738 1.69661 0.728542 1.81036 0.78007-0.0782429 0.32402ZM16.578 32.4527 20.2505 40.6083 11.5226 38.6529Z" fill="#4472C4" transform="matrix(1 0 0 -1 163.5 474.108)"/><path d="M0 0 0.000104987 683.636" stroke="#4472C4" stroke-width="0.666667" stroke-miterlimit="8" stroke-dasharray="5.33333 2" fill="none" fill-rule="evenodd" transform="matrix(1 0 0 -1 1012.5 708.136)"/><text font-family="Calibri,Calibri_MSFontService,sans-serif" font-weight="700" font-size="27" transform="translate(1048.37 65)">Downstream</text><text font-family="Calibri,Calibri_MSFontService,sans-serif" font-weight="700" font-size="27" transform="translate(1196.72 65)">tools</text><path d="M1101.5 296.834C1101.5 290.022 1107.02 284.5 1113.83 284.5L1220.17 284.5C1226.98 284.5 1232.5 290.022 1232.5 296.834L1232.5 346.167C1232.5 352.978 1226.98 358.5 1220.17 358.5L1113.83 358.5C1107.02 358.5 1101.5 352.978 1101.5 346.167Z" stroke="#2F528F" stroke-width="1.33333" stroke-miterlimit="8" fill="#5B9BD5" fill-rule="evenodd"/><text fill="#FFFFFF" font-family="Calibri,Calibri_MSFontService,sans-serif" font-weight="400" font-size="24" transform="translate(1125.26 314)">Sleeplab</text><text fill="#FFFFFF" font-family="Calibri,Calibri_MSFontService,sans-serif" font-weight="400" font-size="24" transform="translate(1122.52 343)">extractor</text><path d="M1098.5 406.334C1098.5 397.037 1106.04 389.5 1115.33 389.5L1217.67 389.5C1226.96 389.5 1234.5 397.037 1234.5 406.334L1234.5 473.666C1234.5 482.963 1226.96 490.5 1217.67 490.5L1115.33 490.5C1106.04 490.5 1098.5 482.963 1098.5 473.666Z" stroke="#2F528F" stroke-width="1.33333" stroke-miterlimit="8" fill="#5B9BD5" fill-rule="evenodd"/><text fill="#FFFFFF" font-family="Calibri,Calibri_MSFontService,sans-serif" font-weight="400" font-size="24" transform="translate(1124.78 418)">Sleeplab</text><text fill="#FFFFFF" font-family="Calibri,Calibri_MSFontService,sans-serif" font-weight="400" font-size="24" transform="translate(1112.64 447)">Tensorflow</text><text fill="#FFFFFF" font-family="Calibri,Calibri_MSFontService,sans-serif" font-weight="400" font-size="24" transform="translate(1130.01 476)">dataset</text><path d="M357.5 340.161 389 340.161 389 331.5 420.5 375 389 418.5 389 409.839 357.5 409.839Z" stroke="#172C51" stroke-width="1.33333" stroke-miterlimit="8" fill="#A5A5A5" fill-rule="evenodd"/><path d="M977.5 371 1010.46 327.5 1010.46 339.977 1051.54 339.977 1051.54 327.5 1084.5 371 1051.54 414.5 1051.54 402.023 1010.46 402.023 1010.46 414.5Z" stroke="#172C51" stroke-width="1.33333" stroke-miterlimit="8" fill="#5B9BD5" fill-rule="evenodd"/><path d="M0 96 0 47.5007C-1.22221e-14 27.6871 16.0621 11.625 35.8757 11.625L69.75 11.625 69.75 0 93 23.25 69.75 46.5 69.75 34.875 35.8757 34.875C28.9027 34.875 23.25 40.5277 23.25 47.5007L23.25 96Z" stroke="#172C51" stroke-width="1.33333" stroke-miterlimit="8" fill="#4472C4" fill-rule="evenodd" transform="matrix(1.83697e-16 1 1 -1.83697e-16 511.5 163.5)"/><path d="M0 97 0 47.5006C-6.1747e-15 27.687 16.0621 11.6249 35.8757 11.6249L69.75 11.625 69.75 0 93 23.25 69.75 46.5 69.75 34.875 35.8757 34.875C28.9027 34.875 23.25 40.5277 23.25 47.5007L23.25 97Z" stroke="#172C51" stroke-width="1.33333" stroke-miterlimit="8" fill="#4472C4" fill-rule="evenodd" transform="matrix(1 -1.22465e-16 -1.22465e-16 -1 521.5 592.5)"/><path d="M0 96 0 47.5007C-1.22221e-14 27.6871 16.0621 11.625 35.8757 11.625L69.75 11.625 69.75 0 93 23.25 69.75 46.5 69.75 34.875 35.8757 34.875C28.9027 34.875 23.25 40.5277 23.25 47.5007L23.25 96Z" stroke="#172C51" stroke-width="1.33333" stroke-miterlimit="8" fill="#4472C4" fill-rule="evenodd" transform="matrix(-6.12323e-17 -1 -1 6.12323e-17 903.5 583.5)"/><path d="M0 96 0 48.0114C-6.11104e-15 27.9848 16.2348 11.75 36.2614 11.75L70.5001 11.75 70.5001 0 94 23.5001 70.5001 47 70.5001 35.25 36.2614 35.25C29.2135 35.25 23.4999 40.9635 23.4999 48.0114L23.5001 96Z" stroke="#172C51" stroke-width="1.33333" stroke-miterlimit="8" fill="#4472C4" fill-rule="evenodd" transform="matrix(-1 0 0 1 900.5 160.5)"/></g></svg>